<?xml version="1.0" standalone="no"?>
<!DOCTYPE svg PUBLIC "-//W3C//DTD SVG 20010904//EN"
 "http://www.w3.org/TR/2001/REC-SVG-20010904/DTD/svg10.dtd">
<svg version="1.0" xmlns="http://www.w3.org/2000/svg"
 width="529.000000pt" height="255.000000pt" viewBox="0 0 529.000000 255.000000"
 preserveAspectRatio="xMidYMid meet">

<g transform="translate(0.000000,255.000000) scale(0.100000,-0.100000)"
fill="#000000" stroke="none">
<path d="M350 1215 l0 -875 200 0 200 0 0 875 0 875 -200 0 -200 0 0 -875z"/>
<path d="M1020 1215 l0 -875 200 0 200 0 2 490 3 490 430 -489 430 -490 142 2
143 2 0 873 0 872 -200 0 -200 0 0 -485 0 -485 -216 242 c-119 134 -314 352
-433 486 l-216 242 -142 0 -143 0 0 -875z"/>
<path d="M2830 1215 l0 -875 200 0 200 0 2 316 3 315 278 -316 279 -316 146 3
147 3 3 156 2 155 -253 279 -254 279 254 281 253 280 0 158 0 157 -145 0 -144
0 -283 -310 -283 -310 -3 310 -2 310 -200 0 -200 0 0 -875z"/>
<path d="M4447 1322 c-9 -10 -17 -24 -17 -30 0 -6 -4 -13 -9 -16 -4 -3 -6 7
-4 22 4 23 2 25 -9 12 -7 -8 -20 -15 -28 -15 -24 0 -45 -81 -33 -126 l10 -37
-58 -22 c-61 -22 -93 -47 -42 -33 15 4 50 8 78 8 45 0 50 -2 59 -28 8 -21 5
-43 -12 -95 -26 -80 -28 -139 -7 -190 9 -21 59 -79 115 -134 55 -54 102 -109
106 -123 3 -14 3 -41 0 -61 -7 -36 -10 -37 -62 -17 -10 4 -29 -25 -22 -32 2
-2 21 -4 43 -6 22 -1 57 -11 77 -21 52 -25 58 -22 18 10 -33 28 -34 30 -24 78
8 42 13 49 35 52 38 5 79 -14 79 -37 0 -27 -13 -33 -46 -21 -21 8 -29 8 -36
-2 -14 -23 -9 -28 30 -28 21 0 58 -11 86 -26 59 -32 70 -26 18 10 -32 21 -38
31 -34 51 7 38 33 30 112 -35 78 -64 140 -85 179 -61 22 14 7 35 -61 87 -35
27 -65 52 -67 57 -2 5 -28 37 -58 70 -31 34 -81 96 -112 137 -31 41 -93 111
-138 156 -46 45 -87 94 -93 109 -18 47 -11 117 15 160 26 42 32 75 14 75 -8 0
-9 14 -5 43 11 73 -9 97 -44 55 l-19 -23 -8 23 c-9 23 -9 23 -26 4z"/>
</g>
</svg>
