<?xml version="1.0" standalone="no"?>
<!DOCTYPE svg PUBLIC "-//W3C//DTD SVG 20010904//EN"
 "http://www.w3.org/TR/2001/REC-SVG-20010904/DTD/svg10.dtd">
<svg version="1.0" xmlns="http://www.w3.org/2000/svg"
 width="529.000000pt" height="255.000000pt" viewBox="0 0 529.000000 255.000000"
 preserveAspectRatio="xMidYMid meet">

<g transform="translate(0.000000,255.000000) scale(0.100000,-0.100000)"
fill="#000000" stroke="none">
<path d="M540 1725 l0 -775 180 0 180 0 0 775 0 775 -180 0 -180 0 0 -775z"/>
<path d="M1142 1723 l3 -778 35 -3 c19 -2 99 -1 178 3 l142 7 0 432 1 431 46
-50 c74 -80 377 -425 590 -670 19 -22 57 -64 85 -92 l50 -53 129 0 129 0 0
775 0 775 -180 0 -180 0 0 -425 c0 -234 -4 -425 -8 -425 -5 0 -51 48 -103 107
-52 58 -170 192 -264 297 -93 105 -183 206 -200 225 -16 19 -53 59 -81 90 -28
31 -66 73 -84 94 l-32 37 -129 0 -129 0 2 -777z"/>
<path d="M2750 1725 l0 -775 180 0 180 0 0 278 1 277 32 -35 c17 -20 52 -58
76 -85 24 -28 121 -137 214 -242 l171 -193 133 0 133 0 0 141 0 140 -197 217
c-109 119 -208 228 -220 242 -13 14 -23 28 -23 32 0 8 117 142 226 258 33 36
95 104 137 152 l77 87 0 140 0 141 -128 0 -129 0 -109 -122 c-60 -67 -136
-152 -170 -188 -34 -36 -97 -105 -140 -153 l-79 -89 -3 276 -2 276 -180 0
-180 0 0 -775z"/>
<path d="M4187 1811 c-9 -14 -16 -18 -19 -10 -5 16 -44 -4 -58 -30 -13 -24
-16 -81 -6 -103 7 -14 -2 -22 -46 -41 l-53 -24 57 5 c92 7 105 -16 68 -123
-11 -32 -20 -72 -20 -88 0 -52 39 -115 111 -180 90 -80 113 -117 105 -162 -6
-32 -10 -35 -39 -32 -23 1 -32 -2 -32 -13 0 -10 14 -17 45 -21 25 -3 54 -10
65 -14 18 -7 17 -5 -4 18 -22 25 -23 30 -13 66 14 45 25 51 70 39 48 -13 45
-46 -5 -50 -52 -4 -48 -22 7 -28 25 -3 56 -12 68 -19 13 -7 26 -10 29 -8 3 3
-9 13 -27 22 -25 13 -30 20 -24 38 3 12 8 23 9 25 5 6 49 -20 90 -53 83 -67
156 -85 163 -40 2 16 -13 32 -58 65 -33 24 -60 48 -60 52 0 5 -24 35 -53 66
-30 31 -74 84 -100 118 -25 34 -75 90 -110 125 -35 35 -71 76 -81 91 -26 39
-24 106 4 156 15 27 20 46 15 59 -5 10 -7 37 -6 59 3 48 -12 63 -39 39 -17
-15 -19 -15 -28 0 -8 16 -11 15 -25 -4z"/>
<path d="M719 487 l-156 -432 105 -3 c119 -3 111 -8 143 86 l21 62 166 -2 165
-3 25 -72 24 -73 110 0 c84 0 109 3 106 12 -3 7 -74 203 -158 436 l-153 422
-121 0 -121 0 -156 -433z m331 41 c27 -80 50 -149 50 -152 0 -3 -48 -6 -106
-6 -81 0 -105 3 -102 13 3 6 26 76 53 155 26 79 49 142 51 140 2 -2 26 -70 54
-150z"/>
<path d="M1530 485 l0 -437 218 4 c205 4 221 6 285 31 156 61 243 169 266 330
18 124 -15 261 -84 351 -35 46 -117 101 -190 127 -53 19 -87 22 -277 27 l-218
4 0 -437z m401 239 c65 -19 129 -80 147 -141 15 -49 16 -145 1 -196 -5 -21
-24 -54 -42 -74 -46 -52 -105 -75 -209 -81 l-88 -5 0 257 0 256 68 0 c38 0 93
-7 123 -16z"/>
<path d="M2430 485 l0 -435 105 0 105 0 2 256 3 256 95 -256 94 -256 86 0 85
0 95 258 95 257 3 -258 2 -257 105 0 105 0 0 435 0 435 -123 0 -123 0 -120
-299 c-65 -165 -121 -298 -124 -296 -3 2 -59 137 -125 299 l-119 296 -123 0
-123 0 0 -435z"/>
<path d="M3570 485 l0 -435 105 0 105 0 0 435 0 435 -105 0 -105 0 0 -435z"/>
<path d="M3940 485 l0 -435 105 0 105 0 0 268 0 267 176 -267 177 -268 103 0
104 0 0 435 0 435 -105 0 -105 0 -2 -266 -3 -266 -174 266 -173 266 -104 0
-104 0 0 -435z"/>
</g>
</svg>
